<svg width="692" height="346" viewBox="0 0 692 346" fill="none" xmlns="http://www.w3.org/2000/svg">
<rect width="692" height="346" rx="10" fill="#F5F6F8"/>
<path d="M433 99.5561H260V230.526H433V99.5561Z" fill="#E7EDF8"/>
<path d="M289.566 106.006H267.18V128.391H289.566V106.006Z" fill="white"/>
<path d="M323.629 106.006H301.243V128.391H323.629V106.006Z" fill="white"/>
<path d="M357.693 106.006H335.308V128.391H357.693V106.006Z" fill="white"/>
<path d="M391.758 106.006H369.372V128.391H391.758V106.006Z" fill="white"/>
<path d="M425.822 106.006H403.437V128.391H425.822V106.006Z" fill="white"/>
<path d="M289.566 137.3H267.18V159.686H289.566V137.3Z" fill="white"/>
<path d="M323.629 137.3H301.243V159.686H323.629V137.3Z" fill="white"/>
<path d="M357.693 137.3H335.308V159.686H357.693V137.3Z" fill="white"/>
<path d="M391.758 137.3H369.372V159.686H391.758V137.3Z" fill="white"/>
<path d="M425.822 137.3H403.437V159.686H425.822V137.3Z" fill="white"/>
<path d="M289.566 168.596H267.18V190.981H289.566V168.596Z" fill="white"/>
<path d="M323.629 168.596H301.243V190.981H323.629V168.596Z" fill="white"/>
<path d="M357.693 168.596H335.308V190.981H357.693V168.596Z" fill="white"/>
<path d="M391.758 168.596H369.372V190.981H391.758V168.596Z" fill="white"/>
<path d="M425.822 168.596H403.437V190.981H425.822V168.596Z" fill="white"/>
<path d="M289.566 199.891H267.18V222.277H289.566V199.891Z" fill="white"/>
<path d="M323.629 199.891H301.243V222.277H323.629V199.891Z" fill="white"/>
<path d="M357.693 199.891H335.308V222.277H357.693V199.891Z" fill="white"/>
<path d="M391.758 199.891H369.372V222.277H391.758V199.891Z" fill="white"/>
<path d="M425.822 199.891H403.437V222.277H425.822V199.891Z" fill="white"/>
<path fill-rule="evenodd" clip-rule="evenodd" d="M267.181 70H273.261V80.8085H292.608V70H298.688V80.8085H318.033V70H324.113V80.8085H343.46V70H349.54V80.8085H368.887V70H374.968V80.8085H394.313V70H400.394V80.8085H419.739V70H425.819V80.8085H433V94.7974H260V80.8085H267.181V70Z" fill="#E7EDF8"/>
<path d="M288.025 125.127L280.411 117.513L288.025 109.899L286.126 108.001L278.513 115.614L270.899 108L269 109.899L276.614 117.513L269 125.127L270.899 127.025L278.513 119.412L286.126 127.025L288.025 125.127Z" fill="#EA4F4D"/>
<path d="M322.025 188.127L314.411 180.513L322.025 172.899L320.126 171.001L312.513 178.614L304.899 171L303 172.899L310.614 180.513L303 188.127L304.899 190.025L312.513 182.412L320.126 190.025L322.025 188.127Z" fill="#EA4F4D"/>
<path d="M390.876 155.392L383.262 147.778L390.876 140.165L388.976 138.267L381.363 145.88L373.749 138.266L371.851 140.165L379.465 147.778L371.851 155.392L373.749 157.291L381.363 149.678L388.976 157.291L390.876 155.392Z" fill="#EA4F4D"/>
<path d="M424.024 124.798L416.411 117.185L424.024 109.571L422.126 107.672L414.513 115.285L406.899 107.672L405 109.571L412.613 117.185L405 124.798L406.899 126.697L414.513 119.083L422.126 126.697L424.024 124.798Z" fill="#EA4F4D"/>
<path d="M424.025 187.126L416.411 179.513L424.025 171.899L422.126 170L414.513 177.614L406.899 170L405 171.899L412.613 179.513L405 187.126L406.899 189.025L414.513 181.411L422.126 189.025L424.025 187.126Z" fill="#EA4F4D"/>
<path d="M283.01 117.351L282.72 117.649L289.859 124.598L290.15 124.3L283.01 117.351Z" fill="#4D4A4E"/>
<path d="M317.01 180.351L316.72 180.649L323.859 187.598L324.15 187.3L317.01 180.351Z" fill="#4D4A4E"/>
<path d="M385.861 147.616L385.57 147.915L392.709 154.864L393 154.565L385.861 147.616Z" fill="#4D4A4E"/>
<path d="M422.307 104L414.374 111.02L414.65 111.332L422.583 104.312L422.307 104Z" fill="#4D4A4E"/>
<path d="M429.5 256.5C433.09 252.91 433.09 247.09 429.5 243.5C425.91 239.91 420.09 239.91 416.5 243.5C412.91 247.09 412.91 252.91 416.5 256.5C420.09 260.09 425.91 260.09 429.5 256.5Z" fill="#5A81DB"/>
<path d="M423 243.971V250L419.361 252.651" fill="#5A81DB"/>
<path d="M423 243.971V250L419.361 252.651" stroke="white" stroke-miterlimit="10" stroke-linecap="round" stroke-linejoin="round"/>
<path d="M345.966 235.615L341.221 261.719L314.117 269.5L317.713 275.602H354.379L352.862 247.073L345.966 235.615Z" fill="#D99789"/>
<path d="M351.481 222.54C351.481 222.54 343.239 225.201 339.223 248.64L352.706 251.502L351.478 222.536L351.481 222.54Z" fill="white"/>
<path d="M399.113 223.971C395.791 222.733 386.76 219.618 375.677 217.822C375.677 217.822 362.993 218.107 362.747 218.213C362.496 218.32 351.482 222.54 351.482 222.54C351.482 222.54 345.041 231.763 350.568 276.324H394.778L390.757 234.089L399.443 225.527C399.936 225.041 399.762 224.21 399.117 223.971H399.113Z" fill="white"/>
<path d="M348.33 250.576C348.33 250.576 347.822 241.729 348.319 236.264" stroke="black" stroke-width="1.3" stroke-linecap="round" stroke-linejoin="round"/>
<path d="M399.199 261.709L360.033 263.823V271.532C360.033 271.532 382.556 276.826 402.142 275.43L399.203 261.709H399.199Z" fill="#EBB3A2"/>
<path d="M360.03 263.823C360.03 263.823 350.18 258.662 344.202 263.25C344.202 263.25 339.495 266.818 336.059 271.536H364.843L360.034 263.827L360.03 263.823Z" fill="#EBB3A2"/>
<path d="M387.962 245.547L393.245 269.462C393.879 273.375 398.037 276.085 402 276.085C407.079 276.085 410.814 271.614 409.847 266.627L405.485 244.147L387.962 245.551V245.547Z" fill="#EBB3A2"/>
<path d="M383.452 237.141L385.94 251.506L408.334 250.739C408.334 250.739 405.933 225.861 399.113 223.971L383.448 237.141H383.452Z" fill="white"/>
<path d="M389.279 251.506H385.941L383.453 237.141" stroke="black" stroke-width="1.3" stroke-linecap="round" stroke-linejoin="round"/>
<path d="M357.514 200.78C359.246 199.048 359.246 196.239 357.514 194.506C355.783 192.773 352.975 192.773 351.244 194.506C349.512 196.239 349.512 199.048 351.244 200.78C352.975 202.513 355.783 202.513 357.514 200.78Z" fill="#D99789"/>
<path d="M366.076 204.364C374.134 204.364 380.667 198.286 380.667 190.788C380.667 183.29 374.134 177.212 366.076 177.212C358.017 177.212 351.484 183.29 351.484 190.788C351.484 198.286 358.017 204.364 366.076 204.364Z" fill="#2A2A2A"/>
<path d="M362.313 207.051L362.867 222.699L376.636 221.58L375.471 198.872L362.313 207.051Z" fill="#EBB3A2"/>
<path d="M362.637 216.016C362.637 216.016 372.612 215.473 373.363 203.267L362.401 208.619L362.637 216.012V216.016Z" fill="#D99789"/>
<path d="M354.675 186.044C353.943 186.067 353.298 186.522 353.04 187.209C352.289 189.213 351.113 193.84 352.577 200.789C354.36 209.249 356.488 213.101 365.606 211.181C368.822 210.505 371.766 207.453 373.776 204.85C374.872 203.434 375.733 203.07 375.676 201.313C375.403 192.796 374.364 185.414 374.364 185.414L354.675 186.044Z" fill="#EBB3A2"/>
<path d="M372.919 198.03C372.919 198.03 369.812 199.07 370.461 195.263C371.109 191.456 371.697 186.701 368.155 186.887C364.612 187.073 357.33 190.485 352.71 186.219C352.71 186.219 352.638 181.516 369.437 182.074C386.236 182.632 372.915 198.03 372.915 198.03H372.919Z" fill="#2A2A2A"/>
<path d="M381.768 199.05C382.335 196.634 380.837 194.215 378.423 193.648C376.008 193.081 373.591 194.58 373.024 196.996C372.458 199.412 373.955 201.831 376.37 202.398C378.785 202.965 381.201 201.466 381.768 199.05Z" fill="#EBB3A2"/>
<path d="M379.374 196.656C379.374 196.656 376.226 195.817 375.68 199.738" stroke="black" stroke-width="1.3" stroke-linecap="round" stroke-linejoin="round"/>
<path d="M352.861 202.079C352.861 202.079 358.228 199.305 366.076 202.835C369.474 204.364 370.461 195.259 370.461 195.259L373.362 195.529C373.362 195.529 375.16 201.358 373.776 204.846C372.054 209.196 368.067 213.025 359.928 211.659C352.71 210.448 352.858 202.076 352.858 202.076L352.861 202.079Z" fill="#2A2A2A"/>
<path d="M356.985 197.464L356.686 198.933C356.591 199.4 356.913 199.848 357.387 199.905L358.354 200.022" stroke="black" stroke-width="1.3" stroke-linecap="round" stroke-linejoin="round"/>
<path d="M363.005 196.861C363.566 196.861 364.021 196.405 364.021 195.844C364.021 195.282 363.566 194.826 363.005 194.826C362.443 194.826 361.988 195.282 361.988 195.844C361.988 196.405 362.443 196.861 363.005 196.861Z" fill="black"/>
<path d="M355.354 195.844C355.354 196.379 354.918 196.815 354.383 196.815C353.848 196.815 353.412 196.379 353.412 195.844C353.412 195.308 353.848 194.872 354.383 194.872C354.918 194.872 355.354 195.308 355.354 195.844Z" fill="black"/>
<path d="M360.736 191.331H365.421" stroke="black" stroke-width="3.47" stroke-linecap="round" stroke-linejoin="round"/>
<path d="M353.279 191.331H355.627" stroke="black" stroke-width="3.47" stroke-linecap="round" stroke-linejoin="round"/>
<path d="M356.341 203.157H361.564C361.564 203.157 361.454 204.611 358.954 204.611C356.872 204.611 356.345 203.157 356.345 203.157H356.341Z" fill="white"/>
<path d="M375.68 217.822L381.897 218.965C381.897 218.965 377.926 226.851 365.531 226.369C355.794 225.99 359.143 219.629 359.143 219.629L362.747 218.213L375.677 217.822H375.68Z" fill="#EBB3A2"/>
<path d="M327.558 271.921H360.428C362.461 271.921 364.107 273.568 364.107 275.602H327.555V271.921H327.558Z" fill="#777E90"/>
<path d="M330.569 275.602H274.476L265.202 241.384C264.599 239.152 266.276 236.955 268.589 236.955H317.412C318.997 236.955 320.382 238.017 320.799 239.547L330.573 275.602H330.569Z" fill="#777E90"/>
<path d="M327.558 275.602H269.397L260.124 241.384C259.521 239.152 261.197 236.955 263.511 236.955H314.4C315.986 236.955 317.37 238.017 317.787 239.547L327.562 275.602H327.558Z" fill="#5A81DB"/>
<path d="M293.02 260.631C295.103 259.774 296.097 257.39 295.241 255.306C294.384 253.222 292.002 252.227 289.919 253.084C287.836 253.941 286.842 256.325 287.698 258.409C288.555 260.493 290.937 261.488 293.02 260.631Z" fill="white"/>
<path d="M433 275L260 275" stroke="#2A2A2A" stroke-linecap="round" stroke-linejoin="round"/>
<path d="M242.727 304V320H240.148L232.609 309.102H232.477V320H229.578V304H232.172L239.703 314.906H239.844V304H242.727ZM250.994 320.234C249.822 320.234 248.807 319.977 247.947 319.461C247.088 318.945 246.421 318.224 245.947 317.297C245.479 316.37 245.244 315.286 245.244 314.047C245.244 312.807 245.479 311.721 245.947 310.789C246.421 309.857 247.088 309.133 247.947 308.617C248.807 308.102 249.822 307.844 250.994 307.844C252.166 307.844 253.182 308.102 254.041 308.617C254.9 309.133 255.564 309.857 256.033 310.789C256.507 311.721 256.744 312.807 256.744 314.047C256.744 315.286 256.507 316.37 256.033 317.297C255.564 318.224 254.9 318.945 254.041 319.461C253.182 319.977 252.166 320.234 250.994 320.234ZM251.01 317.969C251.645 317.969 252.176 317.794 252.604 317.445C253.031 317.091 253.348 316.617 253.557 316.023C253.77 315.43 253.877 314.768 253.877 314.039C253.877 313.305 253.77 312.641 253.557 312.047C253.348 311.448 253.031 310.971 252.604 310.617C252.176 310.263 251.645 310.086 251.01 310.086C250.359 310.086 249.817 310.263 249.385 310.617C248.958 310.971 248.637 311.448 248.424 312.047C248.215 312.641 248.111 313.305 248.111 314.039C248.111 314.768 248.215 315.43 248.424 316.023C248.637 316.617 248.958 317.091 249.385 317.445C249.817 317.794 250.359 317.969 251.01 317.969ZM264.602 320V308H267.305V310.039H267.445C267.695 309.352 268.109 308.815 268.687 308.43C269.266 308.039 269.956 307.844 270.758 307.844C271.57 307.844 272.255 308.042 272.813 308.437C273.375 308.828 273.771 309.362 274 310.039H274.125C274.391 309.372 274.839 308.841 275.469 308.445C276.104 308.044 276.857 307.844 277.727 307.844C278.831 307.844 279.732 308.193 280.43 308.891C281.128 309.589 281.477 310.607 281.477 311.945V320H278.641V312.383C278.641 311.638 278.443 311.094 278.047 310.75C277.651 310.401 277.167 310.227 276.594 310.227C275.911 310.227 275.378 310.44 274.992 310.867C274.612 311.289 274.422 311.839 274.422 312.516V320H271.648V312.266C271.648 311.646 271.461 311.151 271.086 310.781C270.716 310.411 270.232 310.227 269.633 310.227C269.227 310.227 268.857 310.331 268.523 310.539C268.19 310.742 267.924 311.031 267.727 311.406C267.529 311.776 267.43 312.208 267.43 312.703V320H264.602ZM289.658 320.234C288.455 320.234 287.416 319.984 286.541 319.484C285.671 318.979 285.002 318.266 284.533 317.344C284.064 316.417 283.83 315.326 283.83 314.07C283.83 312.836 284.064 311.753 284.533 310.82C285.007 309.883 285.669 309.154 286.518 308.633C287.367 308.107 288.364 307.844 289.51 307.844C290.249 307.844 290.947 307.964 291.604 308.203C292.265 308.437 292.848 308.802 293.354 309.297C293.864 309.792 294.265 310.422 294.557 311.187C294.848 311.948 294.994 312.854 294.994 313.906V314.773H285.158V312.867H292.283C292.278 312.326 292.161 311.844 291.932 311.422C291.702 310.995 291.382 310.659 290.971 310.414C290.564 310.169 290.09 310.047 289.549 310.047C288.971 310.047 288.463 310.187 288.025 310.469C287.588 310.745 287.247 311.109 287.002 311.562C286.762 312.01 286.64 312.503 286.635 313.039V314.703C286.635 315.401 286.762 316 287.018 316.5C287.273 316.995 287.63 317.375 288.088 317.641C288.546 317.901 289.083 318.031 289.697 318.031C290.109 318.031 290.481 317.974 290.814 317.859C291.148 317.74 291.437 317.565 291.682 317.336C291.926 317.107 292.111 316.823 292.236 316.484L294.877 316.781C294.71 317.479 294.393 318.089 293.924 318.609C293.46 319.125 292.867 319.526 292.143 319.812C291.419 320.094 290.59 320.234 289.658 320.234ZM302.699 320.234C301.496 320.234 300.457 319.984 299.582 319.484C298.712 318.979 298.043 318.266 297.574 317.344C297.105 316.417 296.871 315.326 296.871 314.07C296.871 312.836 297.105 311.753 297.574 310.82C298.048 309.883 298.71 309.154 299.559 308.633C300.408 308.107 301.405 307.844 302.551 307.844C303.29 307.844 303.988 307.964 304.645 308.203C305.306 308.437 305.889 308.802 306.395 309.297C306.905 309.792 307.306 310.422 307.598 311.187C307.889 311.948 308.035 312.854 308.035 313.906V314.773H298.199V312.867H305.324C305.319 312.326 305.202 311.844 304.973 311.422C304.743 310.995 304.423 310.659 304.012 310.414C303.605 310.169 303.132 310.047 302.59 310.047C302.012 310.047 301.504 310.187 301.066 310.469C300.629 310.745 300.288 311.109 300.043 311.562C299.803 312.01 299.681 312.503 299.676 313.039V314.703C299.676 315.401 299.803 316 300.059 316.5C300.314 316.995 300.671 317.375 301.129 317.641C301.587 317.901 302.124 318.031 302.738 318.031C303.15 318.031 303.522 317.974 303.855 317.859C304.189 317.74 304.478 317.565 304.723 317.336C304.967 317.107 305.152 316.823 305.277 316.484L307.918 316.781C307.751 317.479 307.434 318.089 306.965 318.609C306.501 319.125 305.908 319.526 305.184 319.812C304.46 320.094 303.632 320.234 302.699 320.234ZM316.42 308V310.187H309.521V308H316.42ZM311.225 305.125H314.053V316.391C314.053 316.771 314.11 317.063 314.225 317.266C314.344 317.464 314.501 317.599 314.693 317.672C314.886 317.745 315.1 317.781 315.334 317.781C315.511 317.781 315.673 317.768 315.818 317.742C315.969 317.716 316.084 317.693 316.162 317.672L316.639 319.883C316.488 319.935 316.271 319.992 315.99 320.055C315.714 320.117 315.376 320.154 314.975 320.164C314.266 320.185 313.628 320.078 313.061 319.844C312.493 319.604 312.042 319.234 311.709 318.734C311.381 318.234 311.219 317.609 311.225 316.859V305.125ZM318.785 320V308H321.613V320H318.785ZM320.207 306.297C319.759 306.297 319.374 306.148 319.051 305.852C318.728 305.549 318.566 305.187 318.566 304.766C318.566 304.339 318.728 303.977 319.051 303.68C319.374 303.378 319.759 303.227 320.207 303.227C320.66 303.227 321.046 303.378 321.363 303.68C321.686 303.977 321.848 304.339 321.848 304.766C321.848 305.187 321.686 305.549 321.363 305.852C321.046 306.148 320.66 306.297 320.207 306.297ZM327.35 312.969V320H324.521V308H327.225V310.039H327.365C327.641 309.367 328.081 308.833 328.686 308.437C329.295 308.042 330.048 307.844 330.943 307.844C331.771 307.844 332.493 308.021 333.107 308.375C333.727 308.729 334.206 309.242 334.545 309.914C334.889 310.586 335.058 311.401 335.053 312.359V320H332.225V312.797C332.225 311.995 332.016 311.367 331.6 310.914C331.188 310.461 330.618 310.234 329.889 310.234C329.394 310.234 328.954 310.344 328.568 310.562C328.188 310.776 327.889 311.086 327.67 311.492C327.456 311.898 327.35 312.391 327.35 312.969ZM343.146 324.75C342.131 324.75 341.258 324.612 340.529 324.336C339.8 324.065 339.214 323.701 338.771 323.242C338.329 322.784 338.021 322.276 337.85 321.719L340.396 321.102C340.511 321.336 340.678 321.568 340.896 321.797C341.115 322.031 341.41 322.224 341.779 322.375C342.154 322.531 342.626 322.609 343.193 322.609C343.995 322.609 344.66 322.414 345.186 322.023C345.712 321.638 345.975 321.003 345.975 320.117V317.844H345.834C345.688 318.135 345.475 318.435 345.193 318.742C344.917 319.049 344.55 319.307 344.092 319.516C343.639 319.724 343.068 319.828 342.381 319.828C341.459 319.828 340.623 319.612 339.873 319.18C339.128 318.742 338.535 318.091 338.092 317.227C337.654 316.357 337.436 315.268 337.436 313.961C337.436 312.643 337.654 311.531 338.092 310.625C338.535 309.714 339.131 309.023 339.881 308.555C340.631 308.081 341.467 307.844 342.389 307.844C343.092 307.844 343.67 307.964 344.123 308.203C344.581 308.437 344.946 308.721 345.217 309.055C345.488 309.383 345.693 309.693 345.834 309.984H345.99V308H348.779V320.195C348.779 321.221 348.535 322.07 348.045 322.742C347.555 323.414 346.886 323.917 346.037 324.25C345.188 324.583 344.225 324.75 343.146 324.75ZM343.17 317.609C343.769 317.609 344.279 317.464 344.701 317.172C345.123 316.88 345.443 316.461 345.662 315.914C345.881 315.367 345.99 314.711 345.99 313.945C345.99 313.19 345.881 312.529 345.662 311.961C345.449 311.393 345.131 310.953 344.709 310.641C344.292 310.323 343.779 310.164 343.17 310.164C342.54 310.164 342.014 310.328 341.592 310.656C341.17 310.984 340.852 311.435 340.639 312.008C340.425 312.576 340.318 313.221 340.318 313.945C340.318 314.68 340.425 315.323 340.639 315.875C340.857 316.422 341.178 316.849 341.6 317.156C342.027 317.458 342.55 317.609 343.17 317.609ZM361.162 311.172L358.584 311.453C358.511 311.193 358.383 310.948 358.201 310.719C358.024 310.49 357.785 310.305 357.482 310.164C357.18 310.023 356.811 309.953 356.373 309.953C355.785 309.953 355.29 310.081 354.889 310.336C354.493 310.591 354.298 310.922 354.303 311.328C354.298 311.677 354.425 311.961 354.686 312.18C354.951 312.398 355.389 312.578 355.998 312.719L358.045 313.156C359.18 313.401 360.024 313.789 360.576 314.32C361.133 314.852 361.415 315.547 361.42 316.406C361.415 317.161 361.193 317.828 360.756 318.406C360.324 318.979 359.722 319.427 358.951 319.75C358.18 320.073 357.295 320.234 356.295 320.234C354.826 320.234 353.644 319.927 352.748 319.312C351.852 318.693 351.318 317.831 351.146 316.727L353.904 316.461C354.029 317.003 354.295 317.411 354.701 317.687C355.107 317.964 355.636 318.102 356.287 318.102C356.959 318.102 357.498 317.964 357.904 317.687C358.316 317.411 358.521 317.07 358.521 316.664C358.521 316.32 358.389 316.036 358.123 315.812C357.863 315.589 357.456 315.417 356.904 315.297L354.857 314.867C353.706 314.628 352.855 314.224 352.303 313.656C351.751 313.083 351.477 312.359 351.482 311.484C351.477 310.745 351.678 310.104 352.084 309.562C352.495 309.016 353.066 308.594 353.795 308.297C354.529 307.995 355.376 307.844 356.334 307.844C357.74 307.844 358.847 308.143 359.654 308.742C360.467 309.341 360.969 310.151 361.162 311.172ZM375.287 308V310.187H368.193V308H375.287ZM369.967 320V306.867C369.967 306.06 370.133 305.388 370.467 304.852C370.805 304.315 371.258 303.914 371.826 303.648C372.394 303.383 373.024 303.25 373.717 303.25C374.206 303.25 374.641 303.289 375.021 303.367C375.402 303.445 375.683 303.516 375.865 303.578L375.303 305.766C375.183 305.729 375.032 305.693 374.85 305.656C374.667 305.615 374.464 305.594 374.24 305.594C373.714 305.594 373.342 305.721 373.123 305.977C372.91 306.227 372.803 306.586 372.803 307.055V320H369.967ZM382.285 320.234C381.113 320.234 380.098 319.977 379.238 319.461C378.379 318.945 377.712 318.224 377.238 317.297C376.77 316.37 376.535 315.286 376.535 314.047C376.535 312.807 376.77 311.721 377.238 310.789C377.712 309.857 378.379 309.133 379.238 308.617C380.098 308.102 381.113 307.844 382.285 307.844C383.457 307.844 384.473 308.102 385.332 308.617C386.191 309.133 386.855 309.857 387.324 310.789C387.798 311.721 388.035 312.807 388.035 314.047C388.035 315.286 387.798 316.37 387.324 317.297C386.855 318.224 386.191 318.945 385.332 319.461C384.473 319.977 383.457 320.234 382.285 320.234ZM382.301 317.969C382.936 317.969 383.467 317.794 383.895 317.445C384.322 317.091 384.639 316.617 384.848 316.023C385.061 315.43 385.168 314.768 385.168 314.039C385.168 313.305 385.061 312.641 384.848 312.047C384.639 311.448 384.322 310.971 383.895 310.617C383.467 310.263 382.936 310.086 382.301 310.086C381.65 310.086 381.108 310.263 380.676 310.617C380.249 310.971 379.928 311.448 379.715 312.047C379.507 312.641 379.402 313.305 379.402 314.039C379.402 314.768 379.507 315.43 379.715 316.023C379.928 316.617 380.249 317.091 380.676 317.445C381.108 317.794 381.65 317.969 382.301 317.969ZM390.436 320V308H393.178V310H393.303C393.521 309.307 393.896 308.773 394.428 308.398C394.964 308.018 395.576 307.828 396.264 307.828C396.42 307.828 396.594 307.836 396.787 307.852C396.985 307.862 397.149 307.88 397.279 307.906V310.508C397.16 310.466 396.969 310.43 396.709 310.398C396.454 310.362 396.206 310.344 395.967 310.344C395.451 310.344 394.988 310.456 394.576 310.68C394.17 310.898 393.85 311.203 393.615 311.594C393.381 311.984 393.264 312.435 393.264 312.945V320H390.436ZM410.607 308V310.187H403.709V308H410.607ZM405.412 305.125H408.24V316.391C408.24 316.771 408.298 317.063 408.412 317.266C408.532 317.464 408.688 317.599 408.881 317.672C409.074 317.745 409.287 317.781 409.521 317.781C409.699 317.781 409.86 317.768 410.006 317.742C410.157 317.716 410.271 317.693 410.35 317.672L410.826 319.883C410.675 319.935 410.459 319.992 410.178 320.055C409.902 320.117 409.563 320.154 409.162 320.164C408.454 320.185 407.816 320.078 407.248 319.844C406.68 319.604 406.23 319.234 405.896 318.734C405.568 318.234 405.407 317.609 405.412 316.859V305.125ZM418.078 320.234C416.906 320.234 415.891 319.977 415.031 319.461C414.172 318.945 413.505 318.224 413.031 317.297C412.563 316.37 412.328 315.286 412.328 314.047C412.328 312.807 412.563 311.721 413.031 310.789C413.505 309.857 414.172 309.133 415.031 308.617C415.891 308.102 416.906 307.844 418.078 307.844C419.25 307.844 420.266 308.102 421.125 308.617C421.984 309.133 422.648 309.857 423.117 310.789C423.591 311.721 423.828 312.807 423.828 314.047C423.828 315.286 423.591 316.37 423.117 317.297C422.648 318.224 421.984 318.945 421.125 319.461C420.266 319.977 419.25 320.234 418.078 320.234ZM418.094 317.969C418.729 317.969 419.26 317.794 419.688 317.445C420.115 317.091 420.432 316.617 420.641 316.023C420.854 315.43 420.961 314.768 420.961 314.039C420.961 313.305 420.854 312.641 420.641 312.047C420.432 311.448 420.115 310.971 419.688 310.617C419.26 310.263 418.729 310.086 418.094 310.086C417.443 310.086 416.901 310.263 416.469 310.617C416.042 310.971 415.721 311.448 415.508 312.047C415.299 312.641 415.195 313.305 415.195 314.039C415.195 314.768 415.299 315.43 415.508 316.023C415.721 316.617 416.042 317.091 416.469 317.445C416.901 317.794 417.443 317.969 418.094 317.969ZM430.682 320.211C429.739 320.211 428.895 319.969 428.15 319.484C427.406 319 426.817 318.297 426.385 317.375C425.952 316.453 425.736 315.333 425.736 314.016C425.736 312.682 425.955 311.557 426.393 310.641C426.835 309.719 427.432 309.023 428.182 308.555C428.932 308.081 429.768 307.844 430.689 307.844C431.393 307.844 431.971 307.964 432.424 308.203C432.877 308.437 433.236 308.721 433.502 309.055C433.768 309.383 433.973 309.693 434.119 309.984H434.236V304H437.072V320H434.291V318.109H434.119C433.973 318.401 433.762 318.711 433.486 319.039C433.21 319.362 432.846 319.638 432.393 319.867C431.939 320.096 431.369 320.211 430.682 320.211ZM431.471 317.891C432.07 317.891 432.58 317.729 433.002 317.406C433.424 317.078 433.744 316.622 433.963 316.039C434.182 315.456 434.291 314.776 434.291 314C434.291 313.224 434.182 312.549 433.963 311.977C433.749 311.404 433.432 310.958 433.01 310.641C432.593 310.323 432.08 310.164 431.471 310.164C430.84 310.164 430.314 310.328 429.893 310.656C429.471 310.984 429.153 311.437 428.939 312.016C428.726 312.594 428.619 313.255 428.619 314C428.619 314.75 428.726 315.419 428.939 316.008C429.158 316.591 429.479 317.052 429.9 317.391C430.327 317.724 430.851 317.891 431.471 317.891ZM443.539 320.242C442.779 320.242 442.094 320.107 441.484 319.836C440.88 319.56 440.401 319.154 440.047 318.617C439.698 318.081 439.523 317.419 439.523 316.633C439.523 315.956 439.648 315.396 439.898 314.953C440.148 314.51 440.49 314.156 440.922 313.891C441.354 313.625 441.841 313.424 442.383 313.289C442.93 313.148 443.495 313.047 444.078 312.984C444.781 312.911 445.352 312.846 445.789 312.789C446.227 312.727 446.544 312.633 446.742 312.508C446.945 312.378 447.047 312.177 447.047 311.906V311.859C447.047 311.271 446.872 310.815 446.523 310.492C446.174 310.169 445.672 310.008 445.016 310.008C444.323 310.008 443.773 310.159 443.367 310.461C442.966 310.763 442.695 311.12 442.555 311.531L439.914 311.156C440.122 310.427 440.466 309.818 440.945 309.328C441.424 308.833 442.01 308.464 442.703 308.219C443.396 307.969 444.161 307.844 445 307.844C445.578 307.844 446.154 307.911 446.727 308.047C447.299 308.182 447.823 308.406 448.297 308.719C448.771 309.026 449.151 309.445 449.438 309.977C449.729 310.508 449.875 311.172 449.875 311.969V320H447.156V318.352H447.063C446.891 318.685 446.648 318.997 446.336 319.289C446.029 319.576 445.641 319.807 445.172 319.984C444.708 320.156 444.164 320.242 443.539 320.242ZM444.273 318.164C444.841 318.164 445.333 318.052 445.75 317.828C446.167 317.599 446.487 317.297 446.711 316.922C446.94 316.547 447.055 316.138 447.055 315.695V314.281C446.966 314.354 446.815 314.422 446.602 314.484C446.393 314.547 446.159 314.602 445.898 314.648C445.638 314.695 445.38 314.737 445.125 314.773C444.87 314.81 444.648 314.841 444.461 314.867C444.039 314.924 443.661 315.018 443.328 315.148C442.995 315.279 442.732 315.461 442.539 315.695C442.346 315.924 442.25 316.221 442.25 316.586C442.25 317.107 442.44 317.5 442.82 317.766C443.201 318.031 443.685 318.164 444.273 318.164ZM454.047 324.5C453.661 324.5 453.305 324.469 452.977 324.406C452.654 324.349 452.396 324.281 452.203 324.203L452.859 322C453.271 322.12 453.638 322.177 453.961 322.172C454.284 322.167 454.568 322.065 454.813 321.867C455.063 321.674 455.273 321.352 455.445 320.898L455.688 320.25L451.336 308H454.336L457.102 317.062H457.227L460 308H463.008L458.203 321.453C457.979 322.089 457.682 322.633 457.313 323.086C456.943 323.544 456.49 323.893 455.953 324.133C455.422 324.378 454.786 324.5 454.047 324.5Z" fill="#464646"/>
</svg>
