<svg width="127" height="24" viewBox="0 0 127 24" fill="none" xmlns="http://www.w3.org/2000/svg">
<path d="M43.263 0.142883H13.9551L27.9112 23.8683L43.263 0.142883Z" fill="#2E59BD"/>
<path d="M52.1448 16.7364L48.8447 5.87385H51.5084L53.4175 13.4214H53.5133L55.6195 5.87385H57.9002L60.0008 13.4374H60.1022L62.0113 5.87385H64.675L61.3749 16.7364H58.9984L56.8021 9.63439H56.712L54.5213 16.7364H52.1448Z" fill="#464646"/>
<path d="M65.9801 16.7364V5.87385H70.5304C71.4014 5.87385 72.1447 6.0206 72.7604 6.31409C73.3799 6.60404 73.8511 7.01598 74.174 7.54992C74.5006 8.08032 74.6639 8.70442 74.6639 9.42223C74.6639 10.1436 74.4987 10.7641 74.1683 11.2839C73.8379 11.8002 73.3593 12.1962 72.7323 12.472C72.1091 12.7478 71.3544 12.8857 70.4684 12.8857H67.4217V11.0399H70.0742C70.5397 11.0399 70.9264 10.9798 71.2343 10.8596C71.5422 10.7394 71.7712 10.5591 71.9213 10.3186C72.0753 10.0782 72.1522 9.77937 72.1522 9.42223C72.1522 9.06156 72.0753 8.75746 71.9213 8.50994C71.7712 8.26242 71.5403 8.07501 71.2287 7.94772C70.9208 7.81689 70.5322 7.75147 70.0629 7.75147H68.4185V16.7364H65.9801ZM72.2085 11.7931L75.075 16.7364H72.3831L69.5786 11.7931H72.2085Z" fill="#464646"/>
<path d="M76.3871 16.7364V5.87385H78.8256V10.6634H78.9777L83.1281 5.87385H86.0509L81.7709 10.7376L86.1015 16.7364H83.1844L80.0251 12.2705L78.8256 13.6495V16.7364H76.3871Z" fill="#464646"/>
<path d="M87.3208 16.7364V5.87385H91.8711C92.7458 5.87385 93.4911 6.03121 94.1068 6.34591C94.7225 6.65708 95.1918 7.09024 95.5147 7.64539C95.8413 8.19701 96.0046 8.83349 96.0046 9.55483C96.0046 10.2762 95.8394 10.9127 95.509 11.4643C95.1786 12.0159 94.7 12.4455 94.073 12.7531C93.4498 13.0608 92.6951 13.2146 91.8091 13.2146H88.9089V11.3741H91.4149C91.8842 11.3741 92.2709 11.2981 92.575 11.146C92.8829 10.9904 93.1119 10.7765 93.262 10.5042C93.416 10.2284 93.4929 9.91197 93.4929 9.55483C93.4929 9.19416 93.416 8.87945 93.262 8.61072C93.1119 8.33845 92.8829 8.12805 92.575 7.97954C92.2671 7.82749 91.8767 7.75147 91.4036 7.75147H89.7592V16.7364H87.3208Z" fill="#464646"/>
<path d="M98.2445 16.7364H95.6315L99.613 5.87385H102.755L106.731 16.7364H104.118L101.229 8.35613H101.139L98.2445 16.7364ZM98.0812 12.4667H104.253V14.2595H98.0812V12.4667Z" fill="#464646"/>
<path d="M114.113 8.99791C114.068 8.57005 113.874 8.23767 113.533 8.00076C113.191 7.76385 112.727 7.64539 112.142 7.64539C111.744 7.64539 111.408 7.69843 111.134 7.80451C110.86 7.90705 110.649 8.05026 110.503 8.23413C110.36 8.41801 110.289 8.62663 110.289 8.86001C110.281 9.05449 110.325 9.22421 110.419 9.36919C110.516 9.51417 110.649 9.63969 110.818 9.74577C110.987 9.84832 111.183 9.93849 111.404 10.0163C111.626 10.0905 111.862 10.1542 112.114 10.2072L113.15 10.4406C113.653 10.5467 114.115 10.6881 114.535 10.8649C114.956 11.0417 115.32 11.2592 115.628 11.5173C115.936 11.7754 116.174 12.0795 116.343 12.4296C116.516 12.7797 116.604 13.181 116.608 13.6336C116.604 14.2984 116.424 14.8747 116.067 15.3627C115.714 15.8471 115.203 16.2237 114.535 16.4925C113.871 16.7577 113.069 16.8903 112.13 16.8903C111.199 16.8903 110.388 16.7559 109.698 16.4872C109.011 16.2184 108.474 15.8206 108.087 15.2938C107.704 14.7634 107.503 14.1074 107.484 13.326H109.844C109.87 13.6902 109.981 13.9943 110.176 14.2383C110.375 14.4787 110.64 14.6608 110.97 14.7846C111.305 14.9048 111.682 14.9649 112.102 14.9649C112.515 14.9649 112.874 14.9083 113.178 14.7952C113.486 14.682 113.724 14.5247 113.893 14.3231C114.062 14.1216 114.147 13.89 114.147 13.6283C114.147 13.3843 114.07 13.1792 113.916 13.013C113.766 12.8468 113.544 12.7054 113.251 12.5887C112.962 12.472 112.607 12.3659 112.187 12.2705L110.931 11.9735C109.959 11.7507 109.191 11.4024 108.628 10.9286C108.065 10.4547 107.785 9.81649 107.789 9.01382C107.785 8.35613 107.971 7.78153 108.346 7.29002C108.725 6.79852 109.245 6.41486 109.906 6.13905C110.567 5.86325 111.318 5.72534 112.159 5.72534C113.015 5.72534 113.762 5.86325 114.4 6.13905C115.042 6.41486 115.541 6.79852 115.898 7.29002C116.255 7.78153 116.439 8.35082 116.45 8.99791H114.113Z" fill="#464646"/>
<path d="M124.504 8.99791C124.459 8.57005 124.266 8.23767 123.924 8.00076C123.583 7.76385 123.119 7.64539 122.533 7.64539C122.135 7.64539 121.799 7.69843 121.525 7.80451C121.251 7.90705 121.041 8.05026 120.895 8.23413C120.752 8.41801 120.681 8.62663 120.681 8.86001C120.673 9.05449 120.716 9.22421 120.81 9.36919C120.908 9.51417 121.041 9.63969 121.21 9.74577C121.379 9.84832 121.574 9.93849 121.796 10.0163C122.017 10.0905 122.254 10.1542 122.505 10.2072L123.541 10.4406C124.044 10.5467 124.506 10.6881 124.927 10.8649C125.347 11.0417 125.711 11.2592 126.019 11.5173C126.327 11.7754 126.566 12.0795 126.734 12.4296C126.907 12.7797 126.995 13.181 126.999 13.6336C126.995 14.2984 126.815 14.8747 126.459 15.3627C126.106 15.8471 125.595 16.2237 124.927 16.4925C124.262 16.7577 123.461 16.8903 122.522 16.8903C121.591 16.8903 120.78 16.7559 120.089 16.4872C119.402 16.2184 118.865 15.8206 118.479 15.2938C118.096 14.7634 117.895 14.1074 117.876 13.326H120.236C120.262 13.6902 120.373 13.9943 120.568 14.2383C120.767 14.4787 121.032 14.6608 121.362 14.7846C121.696 14.9048 122.073 14.9649 122.494 14.9649C122.907 14.9649 123.265 14.9083 123.57 14.7952C123.877 14.682 124.116 14.5247 124.285 14.3231C124.454 14.1216 124.538 13.89 124.538 13.6283C124.538 13.3843 124.461 13.1792 124.307 13.013C124.157 12.8468 123.936 12.7054 123.643 12.5887C123.354 12.472 122.999 12.3659 122.578 12.2705L121.323 11.9735C120.35 11.7507 119.582 11.4024 119.019 10.9286C118.456 10.4547 118.176 9.81649 118.18 9.01382C118.176 8.35613 118.362 7.78153 118.738 7.29002C119.117 6.79852 119.637 6.41486 120.298 6.13905C120.958 5.86325 121.709 5.72534 122.55 5.72534C123.406 5.72534 124.153 5.86325 124.792 6.13905C125.434 6.41486 125.933 6.79852 126.29 7.29002C126.646 7.78153 126.83 8.35082 126.841 8.99791H124.504Z" fill="#464646"/>
<path d="M13.3151 23.1942L-3.70586e-06 0.131628L10.0833 0.131627L18.4316 14.0868L13.3151 23.1942Z" fill="#7ADCB8"/>
</svg>
